# xmcd CD database file
# Copyright (C) 1993-1996 Ti Kan
#
# Track frame offsets:
# 150
# 9840
# 18987
# 30057
# 40907
# 54100
# 66385
# 76412
# 87247
# 99712
# 108975
# 123825
#
# Disc length: 1872 seconds
#
# Revision: 0
# Processed by: cddbd v1.4b41PL1 Copyright (c) Steve Scherf et al.
# Submitted via: inCDius 1.1b5
#
DISCID=80074e0c
DTITLE=Dave Dudley - Truck Drivin' Songs
DYEAR=1900
DGENRE=
TTITLE0=Six Days On The Road
TTITLE1=Truck Drivin' Man
TTITLE2=A Trucker's Prayer
TTITLE3=A Tombstone Every Mile
TTITLE4=Roll, Truck, Roll
TTITLE5=Give Me Forty Acres
TTITLE6=Eastbound And Down
TTITLE7=One More Mile
TTITLE8=There Ain't No Easy Runs
TTITLE9=Keep On Truckin'
TTITLE10=Asphalt Cowboy
TTITLE11=The Last Run
EXTD=
EXTT0=
EXTT1=
EXTT2=
EXTT3=
EXTT4=
EXTT5=
EXTT6=
EXTT7=
EXTT8=
EXTT9=
EXTT10=
EXTT11=
PLAYORDER=
